<svg width="355" height="105" viewBox="0 0 355 105" fill="none" xmlns="http://www.w3.org/2000/svg">
<g clip-path="url(#clip0_22_92)">
<path fill-rule="evenodd" clip-rule="evenodd" d="M314.283 7.74582H329.837L353.077 36.8361H337.523L349.234 51.4673H329.837L318.126 36.8361H325.996L314.283 22.377H325.996L314.283 7.74582Z" fill="white"/>
<path fill-rule="evenodd" clip-rule="evenodd" d="M314.285 7.74582H298.914L275.673 36.8361H291.044L279.516 51.4673H298.914L310.441 36.8361H302.755L314.285 22.377H302.755L314.285 7.74582Z" fill="white"/>
<path d="M269.991 -45H267.247V60.0002H269.991V-45Z" fill="white"/>
<path fill-rule="evenodd" clip-rule="evenodd" d="M18.5743 10.6723H1.92236V35.4592C1.92236 47.5084 11.4378 52.1559 23.515 52.1559C36.6903 52.1559 45.2907 47.8526 45.2907 34.5986V10.6723H29.0047V34.9429C29.0047 38.9019 28.0897 41.6559 23.6981 41.6559C19.6722 41.6559 18.5743 38.7296 18.5743 34.9429V10.6723Z" fill="white"/>
<path fill-rule="evenodd" clip-rule="evenodd" d="M49.8651 51.4672H65.4193V33.9097C65.4193 32.1885 65.4193 29.7787 68.164 29.7787C70.9088 29.7787 70.9088 32.1885 70.9088 33.9097V51.4672H86.4628V30.2951C86.4628 24.4425 83.3522 20.3115 75.1176 20.3115C70.726 20.3115 66.5172 22.0327 64.5043 26.3361H64.3212V21H49.4991V51.4672H49.8651Z" fill="white"/>
<path fill-rule="evenodd" clip-rule="evenodd" d="M92.6841 51.4672H108.238V21H92.6841V51.4672ZM108.238 7.5737H92.5012V17.7295H108.238V7.5737Z" fill="white"/>
<path fill-rule="evenodd" clip-rule="evenodd" d="M113.362 51.4672H129.099V33.9097C129.099 32.1885 129.099 29.7787 131.844 29.7787C134.589 29.7787 134.589 32.1885 134.589 33.9097V51.4672H150.143V33.9097C150.143 32.1885 150.143 29.7787 152.888 29.7787C155.633 29.7787 155.633 32.1885 155.633 33.9097V51.4672H171.187V33.2212C171.187 27.1967 171.187 20.3115 159.841 20.3115C155.999 20.3115 150.509 22.0327 149.411 25.4754H149.228C147.947 21.8606 143.372 20.3115 139.164 20.3115C134.223 20.3115 130.014 22.0327 128.184 26.3361H128.001V21H113.179V51.4672H113.362Z" fill="white"/>
<path fill-rule="evenodd" clip-rule="evenodd" d="M189.851 33.3934C189.668 30.9836 190.4 27.3688 194.06 27.3688C197.537 27.3688 197.903 30.9836 197.903 33.3934H189.851ZM211.444 39.7622V38.0409C211.444 27.7131 207.053 20.4836 194.426 20.4836C181.251 20.4836 174.297 25.6476 174.297 35.8033C174.297 46.3033 181.251 52.3279 194.426 52.3279C199.915 52.3279 204.857 51.8115 209.065 50.6066V42.6885C206.502 43.8934 202.661 44.5819 198.452 44.5819C193.877 44.5819 190.034 43.7213 189.851 39.9343H211.444V39.7622Z" fill="white"/>
<path fill-rule="evenodd" clip-rule="evenodd" d="M253.715 51.4672V7.5737H238.161V24.7867H237.978C235.6 21.5164 232.306 20.1394 228.279 20.1394C218.582 20.1394 214.556 27.3688 214.556 35.6312C214.556 44.4097 218.399 51.9836 228.829 51.9836C233.953 51.9836 237.064 50.2624 239.26 45.7869H239.442V51.2951H253.715V51.4672ZM238.528 36.1476C238.528 39.0737 237.978 42.3442 234.685 42.3442C231.209 42.3442 230.658 38.9016 230.658 35.8033C230.658 32.7049 231.209 29.4343 234.501 29.4343C237.978 29.4343 238.528 32.5327 238.528 36.1476Z" fill="white"/>
<path d="M353.077 59.2131H1.92236V61.7951H353.077V59.2131Z" fill="white"/>
</g>
<defs>
<clipPath id="clip0_22_92">
<rect width="355" height="105" fill="white"/>
</clipPath>
</defs>
</svg>
